# xmcd
#
# Track frame offsets:
#	150
#	14274
#	26891
#	40939
#	58810
#	70371
#	85675
#	98306
#	111271
#	124075
#	144654
#
# Disc length: 2179 seconds
#
# Revision: 1
# Processed by: cddbd v1.5.2PL0 Copyright (c) Steve Scherf et al.
# Submitted via: audiograbber 1.83.01
#
DISCID=9208810b
DTITLE=Jeb Lipson - Grain
DYEAR=2009
DGENRE=Folk-Rock
TTITLE0=Pocatello Rain
TTITLE1=That's All She Wrote
TTITLE2=Belfast Slow
TTITLE3=Who Am I To Say
TTITLE4=Head Over Heels
TTITLE5=It's Only Time
TTITLE6=Red Flag Warning
TTITLE7=Walk On Water
TTITLE8=Every Fallen Angel
TTITLE9=Lovin' You Alone
TTITLE10=One Candle
EXTD=Great album art.  you should buy the disc just for that.
EXTT0=
EXTT1=
EXTT2=
EXTT3=
EXTT4=
EXTT5=
EXTT6=
EXTT7=
EXTT8=
EXTT9=
EXTT10=
PLAYORDER=
